# xmcd
#
# Track frame offsets: 
#        150
#        12920
#        30683
#        49206
#        64436
#        90602
#        115042
#        129321
#        142476
#        163768
#        181518
#        210774
#
# Disc length: 3452 seconds
#
# Revision: 0
# Processed by: cddbd v1.5.2PL0 Copyright (c) Steve Scherf et al.
# Submitted via: ExactAudioCopy v1.2
#
DISCID=a10d7a0c
DTITLE=Slim Paul - Dead Already
DYEAR=2018
DGENRE=Blues
TTITLE0=One Of These Days
TTITLE1=Stuck In My Own City
TTITLE2=Lady Sorrow
TTITLE3=Let Me In
TTITLE4=Nola Song
TTITLE5=Same Morning
TTITLE6=Beauty N The Beat
TTITLE7=Come And Play
TTITLE8=Buried Land
TTITLE9=Long Gone
TTITLE10=Free Talk
TTITLE11=Dead Already
EXTD=
EXTT0=
EXTT1=
EXTT2=
EXTT3=
EXTT4=
EXTT5=
EXTT6=
EXTT7=
EXTT8=
EXTT9=
EXTT10=
EXTT11=
PLAYORDER=
